<svg width="500" height="500" viewBox="0 0 500 500" xmlns="http://www.w3.org/2000/svg">
  <!-- <rect x="0" y="0" width="500" height="500" fill="black"/> -->
  <rect x="25" y="25" width="450" height="450" fill="white"/>
  <rect x="40" y="40" width="420" height="420" fill="none" stroke="black" stroke-width="2"/>

  <g transform="translate(250, 240) scale(1.6)" fill="black">
    <path d="M-60,-10 C-60,-80 60,-80 60,-10 L70,30 L-70,30 Z" />
    
    <path d="M-65,35 L65,35 L75,70 L55,75 L0,55 L-55,75 L-75,70 Z" />
    
    <path d="M-45,45 Q-25,35 -10,50 Q-25,65 -45,55 Z" fill="white"/>
    <path d="M45,45 Q25,35 10,50 Q25,65 45,55 Z" fill="white"/>
    
    <path d="M-55,75 L-25,85 L-25,120 L-45,115 Z" />
    <path d="M55,75 L25,85 L25,120 L45,115 Z" />
    
    <path d="M-22,90 L22,90 L0,125 Z" fill="black"/>
    <path d="M-18,95 L18,95 L0,120 Z" fill="white"/>
    
    <line x1="-12" y1="98" x2="-12" y2="108" stroke="black" stroke-width="1.5"/>
    <line x1="-6" y1="98" x2="-6" y2="114" stroke="black" stroke-width="1.5"/>
    <line x1="0" y1="98" x2="0" y2="118" stroke="black" stroke-width="1.5"/>
    <line x1="6" y1="98" x2="6" y2="114" stroke="black" stroke-width="1.5"/>
    <line x1="12" y1="98" x2="12" y2="108" stroke="black" stroke-width="1.5"/>
    
    <path d="M-100,120 Q-80,100 -50,110 L50,110 Q80,100 100,120 L100,140 L-100,140 Z" />
  </g>
</svg>